<svg xmlns="http://www.w3.org/2000/svg" version="1.1" xmlns:xlink="http://www.w3.org/1999/xlink" viewBox="0 0 200 200"><rect width="200" height="200" fill="url('#gradient')"></rect><defs><linearGradient id="gradient" gradientTransform="rotate(199 0.5 0.5)"><stop offset="0%" stop-color="#ffffff"></stop><stop offset="100%" stop-color="#878587"></stop></linearGradient></defs><g><g fill="#191718" transform="matrix(1.003186757502393,0,0,1.003186757502393,11.922367067272864,107.13691565724793)" stroke="#1a1b1a" stroke-width="0"><path d="M5.75 0L1.07 0L1.07-14.22L5.65-14.22Q7.54-14.22 9.04-13.36Q10.55-12.51 11.39-10.95Q12.24-9.39 12.25-7.46L12.25-7.46L12.25-6.81Q12.25-4.85 11.42-3.31Q10.60-1.76 9.10-0.88Q7.60-0.01 5.75 0L5.75 0ZM5.65-11.57L4.50-11.57L4.50-2.64L5.69-2.64Q7.17-2.64 7.96-3.69Q8.75-4.74 8.75-6.81L8.75-6.81L8.75-7.42Q8.75-9.48 7.96-10.53Q7.17-11.57 5.65-11.57L5.65-11.57ZM23.10 0L19.80 0Q19.63-0.32 19.49-0.95L19.49-0.95Q18.58 0.20 16.95 0.20L16.95 0.20Q15.46 0.20 14.41-0.71Q13.37-1.61 13.37-2.98L13.37-2.98Q13.37-4.70 14.64-5.58Q15.91-6.46 18.33-6.46L18.33-6.46L19.35-6.46L19.35-7.01Q19.35-8.47 18.09-8.47L18.09-8.47Q16.91-8.47 16.91-7.31L16.91-7.31L13.62-7.31Q13.62-8.85 14.93-9.80Q16.23-10.76 18.25-10.76Q20.27-10.76 21.45-9.78Q22.62-8.79 22.65-7.07L22.65-7.07L22.65-2.39Q22.67-0.94 23.10-0.17L23.10-0.17L23.10 0ZM17.74-2.15L17.74-2.15Q18.36-2.15 18.76-2.41Q19.17-2.68 19.35-3.01L19.35-3.01L19.35-4.70L18.39-4.70Q16.67-4.70 16.67-3.15L16.67-3.15Q16.67-2.71 16.97-2.43Q17.28-2.15 17.74-2.15ZM26.89-10.57L28.54-3.92L30.21-10.57L33.67-10.57L30.22 0L26.87 0L23.42-10.57L26.89-10.57ZM43.75 0L40.46 0Q40.28-0.32 40.15-0.95L40.15-0.95Q39.24 0.20 37.61 0.20L37.61 0.20Q36.11 0.20 35.07-0.71Q34.02-1.61 34.02-2.98L34.02-2.98Q34.02-4.70 35.29-5.58Q36.56-6.46 38.98-6.46L38.98-6.46L40-6.46L40-7.01Q40-8.47 38.74-8.47L38.74-8.47Q37.57-8.47 37.57-7.31L37.57-7.31L34.28-7.31Q34.28-8.85 35.58-9.80Q36.88-10.76 38.91-10.76Q40.93-10.76 42.10-9.78Q43.27-8.79 43.30-7.07L43.30-7.07L43.30-2.39Q43.32-0.94 43.75-0.17L43.75-0.17L43.75 0ZM38.40-2.15L38.40-2.15Q39.01-2.15 39.42-2.41Q39.82-2.68 40-3.01L40-3.01L40-4.70L39.04-4.70Q37.32-4.70 37.32-3.15L37.32-3.15Q37.32-2.71 37.63-2.43Q37.93-2.15 38.40-2.15ZM51.57-10.64L51.51-7.59L50.43-7.67Q48.88-7.67 48.44-6.69L48.44-6.69L48.44 0L45.15 0L45.15-10.57L48.23-10.57L48.34-9.21Q49.17-10.76 50.65-10.76L50.65-10.76Q51.18-10.76 51.57-10.64L51.57-10.64ZM61.65 0L58.36 0Q58.18-0.32 58.05-0.95L58.05-0.95Q57.14 0.20 55.51 0.20L55.51 0.20Q54.01 0.20 52.97-0.71Q51.92-1.61 51.92-2.98L51.92-2.98Q51.92-4.70 53.19-5.58Q54.46-6.46 56.88-6.46L56.88-6.46L57.90-6.46L57.90-7.01Q57.90-8.47 56.64-8.47L56.64-8.47Q55.47-8.47 55.47-7.31L55.47-7.31L52.18-7.31Q52.18-8.85 53.48-9.80Q54.79-10.76 56.81-10.76Q58.83-10.76 60-9.78Q61.17-8.79 61.20-7.07L61.20-7.07L61.20-2.39Q61.22-0.94 61.65-0.17L61.65-0.17L61.65 0ZM56.30-2.15L56.30-2.15Q56.91-2.15 57.32-2.41Q57.72-2.68 57.90-3.01L57.90-3.01L57.90-4.70L56.94-4.70Q55.22-4.70 55.22-3.15L55.22-3.15Q55.22-2.71 55.53-2.43Q55.83-2.15 56.30-2.15ZM79.79-7.60L79.79-1.76Q79.00-0.88 77.48-0.34Q75.96 0.20 74.14 0.20L74.14 0.20Q71.35 0.20 69.68-1.51Q68.01-3.22 67.89-6.27L67.89-6.27L67.88-7.50Q67.88-9.60 68.62-11.17Q69.37-12.73 70.75-13.58Q72.13-14.42 73.95-14.42L73.95-14.42Q76.60-14.42 78.07-13.21Q79.54-11.99 79.79-9.58L79.79-9.58L76.48-9.58Q76.31-10.77 75.72-11.28Q75.14-11.79 74.06-11.79L74.06-11.79Q72.77-11.79 72.07-10.69Q71.37-9.60 71.36-7.57L71.36-7.57L71.36-6.71Q71.36-4.58 72.08-3.51Q72.81-2.44 74.38-2.44L74.38-2.44Q75.71-2.44 76.37-3.04L76.37-3.04L76.37-5.24L73.98-5.24L73.98-7.60L79.79-7.60ZM81.23-4.82L81.22-5.38Q81.22-6.96 81.84-8.20Q82.45-9.43 83.60-10.10Q84.76-10.76 86.31-10.76L86.31-10.76Q88.68-10.76 90.05-9.29Q91.42-7.82 91.42-5.29L91.42-5.29L91.42-5.18Q91.42-2.71 90.04-1.25Q88.67 0.20 86.33 0.20L86.33 0.20Q84.07 0.20 82.71-1.16Q81.34-2.51 81.23-4.82L81.23-4.82ZM84.52-5.77L84.51-5.18Q84.51-3.71 84.97-3.03Q85.43-2.34 86.33-2.34L86.33-2.34Q88.09-2.34 88.13-5.05L88.13-5.05L88.13-5.38Q88.13-8.22 86.31-8.22L86.31-8.22Q84.66-8.22 84.52-5.77L84.52-5.77ZM95.29-10.57L96.93-3.92L98.60-10.57L102.07-10.57L98.62 0L95.26 0L91.82-10.57L95.29-10.57ZM108.04 0.20L108.04 0.20Q105.61 0.20 104.10-1.25Q102.60-2.71 102.60-5.03L102.60-5.03L102.60-5.30Q102.60-6.92 103.20-8.16Q103.80-9.40 104.95-10.08Q106.10-10.76 107.69-10.76L107.69-10.76Q109.91-10.76 111.20-9.38Q112.49-8.00 112.49-5.53L112.49-5.53L112.49-4.25L105.95-4.25Q106.12-3.36 106.72-2.85Q107.31-2.34 108.26-2.34L108.26-2.34Q109.82-2.34 110.70-3.44L110.70-3.44L112.21-1.66Q111.59-0.81 110.46-0.31Q109.34 0.20 108.04 0.20ZM107.67-8.22L107.67-8.22Q106.22-8.22 105.95-6.31L105.95-6.31L109.27-6.31L109.27-6.56Q109.29-7.35 108.87-7.79Q108.45-8.22 107.67-8.22ZM120.26-10.64L120.21-7.59L119.12-7.67Q117.57-7.67 117.13-6.69L117.13-6.69L117.13 0L113.84 0L113.84-10.57L116.92-10.57L117.03-9.21Q117.86-10.76 119.35-10.76L119.35-10.76Q119.87-10.76 120.26-10.64L120.26-10.64ZM121.33-10.57L124.41-10.57L124.52-9.33Q125.62-10.76 127.54-10.76L127.54-10.76Q129.19-10.76 130.00-9.78Q130.82-8.79 130.85-6.81L130.85-6.81L130.85 0L127.55 0L127.55-6.67Q127.55-7.47 127.23-7.85Q126.90-8.22 126.05-8.22L126.05-8.22Q125.09-8.22 124.62-7.46L124.62-7.46L124.62 0L121.33 0L121.33-10.57ZM141.91 0L138.62 0Q138.45-0.32 138.31-0.95L138.31-0.95Q137.40 0.20 135.77 0.20L135.77 0.20Q134.28 0.20 133.23-0.71Q132.19-1.61 132.19-2.98L132.19-2.98Q132.19-4.70 133.46-5.58Q134.73-6.46 137.15-6.46L137.15-6.46L138.16-6.46L138.16-7.01Q138.16-8.47 136.90-8.47L136.90-8.47Q135.73-8.47 135.73-7.31L135.73-7.31L132.44-7.31Q132.44-8.85 133.75-9.80Q135.05-10.76 137.07-10.76Q139.09-10.76 140.26-9.78Q141.44-8.79 141.46-7.07L141.46-7.07L141.46-2.39Q141.48-0.94 141.91-0.17L141.91-0.17L141.91 0ZM136.56-2.15L136.56-2.15Q137.18-2.15 137.58-2.41Q137.99-2.68 138.16-3.01L138.16-3.01L138.16-4.70L137.21-4.70Q135.49-4.70 135.49-3.15L135.49-3.15Q135.49-2.71 135.79-2.43Q136.09-2.15 136.56-2.15ZM143.22-10.57L146.31-10.57L146.42-9.33Q147.51-10.76 149.43-10.76L149.43-10.76Q151.08-10.76 151.90-9.78Q152.71-8.79 152.74-6.81L152.74-6.81L152.74 0L149.44 0L149.44-6.67Q149.44-7.47 149.12-7.85Q148.80-8.22 147.95-8.22L147.95-8.22Q146.98-8.22 146.51-7.46L146.51-7.46L146.51 0L143.22 0L143.22-10.57ZM159.03-2.34L159.03-2.34Q159.73-2.34 160.11-2.72Q160.49-3.10 160.48-3.77L160.48-3.77L163.56-3.77Q163.56-2.03 162.32-0.92Q161.07 0.20 159.11 0.20L159.11 0.20Q156.81 0.20 155.48-1.25Q154.15-2.70 154.15-5.25L154.15-5.25L154.15-5.39Q154.15-6.99 154.74-8.22Q155.33-9.44 156.45-10.10Q157.56-10.76 159.08-10.76L159.08-10.76Q161.14-10.76 162.35-9.62Q163.56-8.48 163.56-6.52L163.56-6.52L160.48-6.52Q160.48-7.34 160.08-7.78Q159.68-8.22 159.00-8.22L159.00-8.22Q157.72-8.22 157.51-6.59L157.51-6.59Q157.44-6.07 157.44-5.17L157.44-5.17Q157.44-3.57 157.82-2.96Q158.20-2.34 159.03-2.34ZM170.07 0.20L170.07 0.20Q167.64 0.20 166.13-1.25Q164.63-2.71 164.63-5.03L164.63-5.03L164.63-5.30Q164.63-6.92 165.23-8.16Q165.83-9.40 166.98-10.08Q168.13-10.76 169.72-10.76L169.72-10.76Q171.94-10.76 173.23-9.38Q174.52-8.00 174.52-5.53L174.52-5.53L174.52-4.25L167.98-4.25Q168.15-3.36 168.75-2.85Q169.35-2.34 170.29-2.34L170.29-2.34Q171.86-2.34 172.73-3.44L172.73-3.44L174.24-1.66Q173.62-0.81 172.50-0.31Q171.37 0.20 170.07 0.20ZM169.70-8.22L169.70-8.22Q168.25-8.22 167.98-6.31L167.98-6.31L171.30-6.31L171.30-6.56Q171.32-7.35 170.90-7.79Q170.48-8.22 169.70-8.22Z"></path></g></g></svg>